<svg xmlns="http://www.w3.org/2000/svg" viewBox="0 0 64 64">
  <defs>
    <linearGradient id="g" x1="0" y1="0" x2="1" y2="1">
      <stop offset="0" stop-color="#FF8A00"/>
      <stop offset="1" stop-color="#FF4D00"/>
    </linearGradient>
  </defs>
  <path d="M32 6c10 0 18 9 18 19 0 7-4 13-10 17-3 2-5 4-6 8H30c-1-4-3-6-6-8C18 38 14 32 14 25 14 15 22 6 32 6z" fill="url(#g)"/>
  <path d="M22 24c4-3 9-5 10-10 1 5 6 7 10 10 3 2 5 5 5 9 0 4-2 8-6 11-3 2-5 4-6 8h-6c-1-4-3-6-6-8-4-3-6-7-6-11 0-4 2-7 5-9z" fill="#FFB000" opacity=".25"/>
  <path d="M26 56h12c2 0 4 2 4 4H22c0-2 2-4 4-4z" fill="#1b1b1f" opacity=".35"/>
</svg>